<svg width="139" height="36" viewBox="0 0 139 36" fill="none" xmlns="http://www.w3.org/2000/svg">
    <path d="M48.372 19.95c-1.176-.585-1.795-1.058-1.795-1.727 0-.863.836-1.392 2.167-1.392 1.547 0 2.91.585 2.91.585l1.082-2.98s-.99-.697-3.93-.697c-4.086 0-6.934 2.117-6.934 5.069 0 1.67 1.331 2.952 3.096 3.871 1.423.724 1.918 1.253 1.918 2.005 0 .808-.711 1.448-2.042 1.448-1.981 0-3.838-.919-3.838-.919l-1.146 2.98s1.734 1.03 4.612 1.03c4.21 0 7.212-1.865 7.212-5.207.062-1.838-1.486-3.12-3.312-4.066zM65.149 13.684c-2.074 0-3.684.891-4.953 2.228l-.062-.028 1.795-8.466h-4.704l-4.55 21.527h4.674l1.547-7.352c.62-2.785 2.198-4.484 3.684-4.484 1.052 0 1.454.64 1.454 1.56 0 .585-.062 1.28-.216 1.866l-1.765 8.438h4.674l1.826-8.689c.217-.919.34-2.005.34-2.757.063-2.423-1.3-3.843-3.744-3.843zM79.542 13.684c-5.634 0-9.379 4.567-9.379 9.664 0 3.258 2.229 5.904 6.438 5.904 5.54 0 9.255-4.456 9.255-9.664.03-3.036-1.92-5.904-6.314-5.904zm-2.29 12.31c-1.61 0-2.26-1.226-2.26-2.758 0-2.423 1.392-6.35 3.93-6.35 1.672 0 2.198 1.282 2.198 2.535 0 2.618-1.393 6.572-3.869 6.572zM97.863 13.684c-3.157 0-4.952 2.507-4.952 2.507h-.062l.279-2.256H88.98c-.217 1.531-.588 3.843-.96 5.597l-3.25 15.373h4.674l1.3-6.238h.093s.96.557 2.755.557c5.51 0 9.1-5.069 9.1-10.193 0-2.813-1.393-5.347-4.829-5.347zm-4.457 12.393c-1.207 0-1.919-.613-1.919-.613l.774-3.927c.557-2.617 2.074-4.372 3.683-4.372 1.424 0 1.857 1.198 1.857 2.312 0 2.701-1.795 6.6-4.395 6.6zM109.379 7.641c-1.485 0-2.692 1.058-2.692 2.45 0 1.254.866 2.117 2.197 2.117h.062c1.455 0 2.724-.89 2.755-2.45.031-1.254-.898-2.117-2.322-2.117zM102.819 28.945h4.705l3.188-14.926h-4.736l-3.157 14.926zM122.596 13.99h-3.25l.155-.696c.279-1.448 1.207-2.729 2.786-2.729.835 0 1.485.223 1.485.223l.929-3.286s-.805-.362-2.538-.362c-1.672 0-3.312.417-4.581 1.392-1.61 1.225-2.352 2.98-2.724 4.762l-.124.696h-2.166l-.681 3.175h2.166l-2.476 11.78h4.674l2.476-11.78h3.219l.65-3.175zM133.862 14.019s-2.94 6.628-4.24 10.248h-.062c-.093-1.17-1.146-10.248-1.146-10.248h-4.921l2.817 13.701c.062.306.031.501-.093.696-.557.947-1.455 1.866-2.538 2.535-.867.584-1.857.947-2.631 1.197l1.3 3.565c.959-.195 2.909-.891 4.581-2.284 2.135-1.81 4.116-4.567 6.128-8.355l5.727-11.055h-4.922zM23.732 4.327s-.433.111-1.145.306a7.717 7.717 0 0 0-.557-1.225c-.805-1.392-2.012-2.144-3.436-2.144-.093 0-.186 0-.31.028-.03-.056-.092-.084-.123-.14-.62-.612-1.424-.89-2.383-.863-1.858.056-3.715 1.253-5.2 3.398C9.525 5.19 8.72 7.084 8.504 8.56c-2.136.585-3.622 1.003-3.653 1.03-1.083.307-1.114.335-1.238 1.254-.093.696-2.94 20.302-2.94 20.302l23.4 3.648V4.299c-.186 0-.279.028-.34.028zm-5.416 1.504c-1.238.334-2.6.724-3.931 1.086.371-1.309 1.114-2.618 1.98-3.481.341-.306.805-.668 1.332-.891.526 1.002.65 2.367.619 3.286zm-2.538-4.4c.433 0 .804.083 1.114.25-.495.223-.99.585-1.455 1.003-1.176 1.142-2.074 2.924-2.445 4.623-1.114.306-2.229.613-3.25.891.68-2.673 3.188-6.712 6.036-6.767zm-3.59 15.317c.123 1.782 5.354 2.172 5.663 6.377.217 3.314-1.95 5.57-5.076 5.737-3.776.223-5.85-1.782-5.85-1.782l.805-3.064s2.074 1.42 3.745 1.31c1.084-.057 1.486-.864 1.455-1.421-.155-2.34-4.426-2.2-4.705-6.043-.247-3.23 2.105-6.49 7.305-6.795 2.012-.112 3.033.334 3.033.334l-1.176 4.01s-1.33-.557-2.91-.446c-2.29.14-2.32 1.448-2.29 1.783zm7.366-11.251c0-.836-.124-2.033-.557-3.036 1.423.25 2.104 1.671 2.414 2.534a57.18 57.18 0 0 0-1.857.502z" fill="#5A6773"/>
    <path d="m24.786 34.738 9.72-2.172s-4.18-25.426-4.21-25.593a.35.35 0 0 0-.34-.279c-.156 0-2.88-.055-2.88-.055s-1.67-1.448-2.29-2.005v30.104z" fill="#78848F"/>
</svg>
